# xmcd CD database file
#
# Track frame offsets:
#	150
#	17392
#	36280
#	57752
#	91405
#	102760
#	120530
#	136800
#	151045
#	170850
#	184052
#	221467
#
# Disc length: 3127 seconds
#
# Revision: 0
# Processed by: cddbd v1.5.1PL0 Copyright (c) Steve Scherf et al.
# Submitted via: CDex 1.51
#
DISCID=930c350c
DTITLE=Eddy Wilson's Blues Band and Friends - Need Your Love So Bad
DYEAR=1900
DGENRE=Blues
TTITLE0=I'd Rather Go Blind
TTITLE1=Red House
TTITLE2=Now That The Magic Has Gone
TTITLE3=Since I've Been Loving You
TTITLE4=Miss Celie's Blues
TTITLE5=Need Your Love so Bad
TTITLE6=All Your Love
TTITLE7=How Blue Can You Get
TTITLE8=I Just Can' Wait No More
TTITLE9=Thje Supernatural
TTITLE10=Hoochie Coochie Man
TTITLE11=Hit The Road
EXTD=
EXTT0=
EXTT1=
EXTT2=
EXTT3=
EXTT4=
EXTT5=
EXTT6=
EXTT7=
EXTT8=
EXTT9=
EXTT10=
EXTT11=
PLAYORDER=
